<svg id="svg" fill="#000000" stroke="#000000" width="200px" height="200px" version="1.1" viewBox="144 144 512 512" xmlns="http://www.w3.org/2000/svg">
    <g id="IconSvg_bgCarrier" stroke-width="0"></g>
    <g id="IconSvg_tracerCarrier" stroke-linecap="round" stroke-linejoin="round" stroke="#CCCCCC"></g>
     <g id="IconSvg_iconCarrier">
      <path xmlns="http://www.w3.org/2000/svg" d="m600.05 406.61c-0.58203-0.41797-1.2461-0.70703-1.9453-0.84766 0-0.003906-62.332-12.594-80.59-16.371-5.0586-1.0469-12.84-4.5859-21.598-9.125-0.16016-0.10547-0.32812-0.17578-0.5-0.26172-8.1133-4.2266-17.02-9.2695-25.418-14.035-13.473-7.6445-26.195-14.871-34.219-17.914-20.348-7.7188-153.53-9.4922-226.36 5.4453-1.7031 0.34766-3.1055 1.5508-3.7109 3.1836-0.59766 1.625-14.793 40.676-14.164 106.96 0.023437 2.5312 1.918 4.6484 4.4336 4.9531 1.5195 0.18359 15.332 1.8555 34.055 3.9766 2.7969 18.098 18.43 32.008 37.297 32.008 16.145 0 29.918-10.195 35.316-24.469 13.344 1.1914 25.227 2.082 33.566 2.375 29.137 1.0234 133.95 2.4727 171.62 2.9727 6.5117 11.402 18.766 19.121 32.812 19.121 14.367 0 26.883-8.0625 33.27-19.898 23.16-1.6016 36.062-4.9883 38.469-10.141 4.9766-10.664 10.723-51.367-12.328-67.938zm1.7266 17.324-10.754-0.71875c-2.8359-2.6133-7.3945-6.8906-11.719-10.977 7.5117 1.5195 13.355 2.7031 15.684 3.1719 2.8555 2.2656 5.0742 5.1992 6.7891 8.5234zm-136.75-49.207c8.0586 4.5742 16.195 9.1719 23.809 13.191 0.58594 2.6523 0.79297 4.457 0.83203 5.5898l-58.699-5.2617c-0.44922-0.027344-17.898-1.1719-40.117-2.6797-1.1758-6.6211-4.2344-23.691-5.8555-32.723 23.918 0.82422 41.68 2.5312 47.215 4.6289 7.2969 2.7695 19.695 9.8047 32.816 17.254zm-90.32-22.176c1.3203 7.3555 4.2812 23.852 5.7891 32.312-33.469-2.293-72.965-5.1016-82.785-6.2422-0.14844-0.015625-0.32812-0.039062-0.48438-0.058594 1.1211-7.1836 3.7656-18.32 5.4766-25.105 25.422-1.1797 50.594-1.3789 72.004-0.90625zm-135.04 6.1953c16.543-2.1641 34.453-3.7109 52.516-4.7422-1.582 6.4258-3.8672 16.23-4.9492 23.301-16.102-2.1055-38.977-5.375-48.816-6.793zm-33.449 39.969 9.1914 1.3789-0.70312 11.434-10.328 0.44141c0.57031-4.7148 1.1875-9.1367 1.8398-13.254zm61.105 95.797c-15.277 0-27.711-12.43-27.711-27.711 0-15.277 12.434-27.711 27.711-27.711 15.277 0 27.711 12.43 27.711 27.711-0.003907 15.281-12.438 27.711-27.711 27.711zm273.32 0c-15.277 0-27.711-12.43-27.711-27.711 0-15.277 12.434-27.711 27.711-27.711 15.277 0 27.711 12.43 27.711 27.711-0.003906 15.281-12.438 27.711-27.711 27.711zm62.816-24.703c-2.7656 1.9141-12.613 3.3789-25.766 4.3633 0.47266-2.3867 0.73438-4.8477 0.73438-7.3711 0-20.836-16.949-37.785-37.785-37.785-20.836 0-37.785 16.949-37.785 37.785 0 2.9375 0.37109 5.7852 1.0078 8.5312-40.637-0.54297-139.25-1.9258-167.3-2.9141-7.8242-0.27344-18.984-1.1016-31.625-2.2227 0.10156-1.1211 0.17188-2.25 0.17188-3.3945 0-20.836-16.949-37.785-37.785-37.785-19.348 0-35.32 14.621-37.508 33.391-12.539-1.4219-22.734-2.625-28.219-3.2773 0.011719-13.598 0.67969-25.965 1.7031-37.031l16.375-0.69531c2.582-0.10938 4.6602-2.1484 4.8164-4.7266l1.2578-20.574c0.16406-2.6055-1.6992-4.9023-4.2812-5.2891l-13.527-2.0273c2.4844-13.008 5.043-21.875 6.3477-25.988 4.8203-0.94141 9.875-1.8047 15.098-2.6055l-1.5 14.078c-0.28906 2.6914 1.6055 5.1289 4.2852 5.5195 0.46094 0.066406 46.461 6.7539 64.379 8.832 17.973 2.0898 129.04 9.3711 133.64 9.6719l60.508 5.4258c0.4375 0.089844 0.91016 0.13672 1.4062 0.13672 1.5352 0 3.2773-0.48047 4.7656-1.8398 1.9922-1.8203 2.9102-4.6172 2.8281-8.625 6.1211 2.8711 11.539 4.9922 15.777 5.8672 8.8164 1.8242 27.879 5.6953 45.27 9.2227 0.058594 0.0625 0.078125 0.14453 0.14453 0.20312 0.77344 0.73438 18.996 18.047 24.645 23.172 0.83984 0.76172 1.9141 1.2188 3.0508 1.293l16.762 1.1172c2.9609 13.68 0.75391 29.336-1.8906 35.543z"></path>

      </g>
      </svg>