<svg id="svg" fill="#000000" stroke="#000000" width="200px" height="200px" version="1.1" viewBox="144 144 512 512" xmlns="http://www.w3.org/2000/svg">
    <g id="IconSvg_bgCarrier" stroke-width="0"></g>
    <g id="IconSvg_tracerCarrier" stroke-linecap="round" stroke-linejoin="round" stroke="#CCCCCC"></g>
     <g id="IconSvg_iconCarrier">
      <path xmlns="http://www.w3.org/2000/svg" d="m569.32 217.57h-29.305c-0.31641-0.94922-0.72656-1.875-1.3086-2.7344l-30.152-44.488c-0.44922-0.66406-0.96875-1.2656-1.543-1.8086-2.0234-2.3984-5.0078-3.9531-8.3906-3.9531h-195.11c-1.6914 0-3.2734 0.41406-4.7031 1.0898-2.9922 0.48438-5.6602 2.1562-7.3672 4.6719l-30.152 44.484c-0.58203 0.85938-0.99609 1.7852-1.3086 2.7344h-29.305c-19.516 0-35.395 15.875-35.395 35.395v347.06c0 19.512 15.875 35.391 35.395 35.391h338.64c19.516 0 35.395-15.875 35.395-35.391l-0.003906-347.06c0-19.516-15.875-35.391-35.391-35.391zm-115.1 72.137-35.109-30.926 78.066-65.926 18.484 27.273zm-4.8789 233.29-49.328 55.223-18.508-20.711 60.102-67.129zm-66.684-134.8c0.039063-0.17578 0.078125-0.35938 0.11328-0.54297l9.5781-40.23h15.344l4.7812 20.156-33.914 37.844zm-21.281 89.582c0.039063-0.17188 0.074219-0.34766 0.10938-0.52734l9.4414-39.723 45.969-51.297 7.9375 33.461-67.547 75.309zm67.883-39.438 7.918 33.379-66.234 73.977-18.953-21.207zm-19.273-112.96h-19.902l-17.102-30.277 27.016-23.789 27.047 23.828zm-9.9883-79.305-70.395-59.449h140.79zm-97.184-53.223 78.066 65.926-35.109 30.926-61.441-69.582zm279.86 407.16c0 7.3633-5.9883 13.348-13.352 13.348h-338.64c-7.3633 0-13.352-5.9844-13.352-13.348l0.003906-347.06c0-7.3633 5.9883-13.352 13.352-13.352h41.457l64.402 72.938c2.1797 2.4688 5.2148 3.7266 8.2656 3.7266 2.5898 0 5.1875-0.90625 7.2812-2.7539l4.0039-3.5273 15.848 28.059-10.719 44.977c-0.042969 0.17969-0.078125 0.35938-0.11328 0.54297l-21.172 89.047c-0.039063 0.17969-0.078125 0.35937-0.11328 0.54297l-11.941 50.348c-0.83203 3.5078 0.10547 7.2031 2.5078 9.8906l60.871 68.074c2.0156 2.6328 5.1914 4.3281 8.7734 4.3281 3.4297 0 6.4883-1.5742 8.5117-4.0352l61.07-68.371c2.3984-2.6875 3.3359-6.375 2.5078-9.8828l-43.992-185.42 15.824-28.055 3.9609 3.4883c2.0938 1.8438 4.6914 2.7539 7.2812 2.7539 3.0508 0 6.0859-1.2578 8.2656-3.7266l64.402-72.938h41.453c7.3633 0 13.352 5.9883 13.352 13.352z"></path>

      </g>
      </svg>