<svg id="svg" fill="#000000" stroke="#000000" width="200px" height="200px" version="1.1" viewBox="144 144 512 512" xmlns="http://www.w3.org/2000/svg">
    <g id="IconSvg_bgCarrier" stroke-width="0"></g>
    <g id="IconSvg_tracerCarrier" stroke-linecap="round" stroke-linejoin="round" stroke="#CCCCCC"></g>
     <g id="IconSvg_iconCarrier">
      <g xmlns="http://www.w3.org/2000/svg">
  <path d="m504.54 388.59h-209.08v-5.0391c0-30.859 25.105-55.965 55.965-55.965h97.152c30.859 0 55.965 25.105 55.965 55.965zm-198.73-10.078h188.38c-2.5156-22.941-22.012-40.852-45.613-40.852h-97.152c-23.602 0-43.098 17.91-45.613 40.852z"></path>
  <path d="m451.67 431.2-15.266-16.922h-125.53v-35.77h178.25v35.77h-20.668zm-130.72-26.996h119.93l11.133 12.34 12.234-12.34h14.793l0.003907-15.617h-158.09z"></path>
  <path d="m489.12 458.58h-178.25v-24.52h178.25zm-168.17-10.074h158.09v-4.3672l-158.09-0.003906z"></path>
  <path d="m350.33 529.24-13.105-17.508h-26.352v-33.113l27.07-11.734c6.1836-2.6992 13.543-2.8867 19.891-0.50781l21.855 8.1445c3.3125 1.2461 7.1094 1.125 10.211-0.28125l16.441-7.4141c5.8398-2.6484 12.914-2.9805 19.07-0.86719l31.711 10.934h32v34.844l-119.11-0.003906zm-29.383-27.582h21.32l9.5586 12.77 14.367-12.77h112.85v-14.691h-23.617l-33.293-11.48c-3.7422-1.2812-8.0938-1.0898-11.637 0.51953l-16.441 7.4141c-5.4922 2.4961-12.172 2.6992-17.902 0.53516l-21.844-8.1406c-3.957-1.4766-8.5117-1.3594-12.344 0.3125l-21.012 9.1055z"></path>
  <path d="m462.37 545.41h-124.69c-23.281 0-42.219-15.359-42.219-34.242v-9.5195h46.809l9.5586 12.77 14.367-12.77h138.34v9.5195c0 18.883-18.918 34.242-42.168 34.242zm-156.83-33.684c0.39453 13.07 14.656 23.609 32.133 23.609h124.69c17.453 0 31.691-10.539 32.082-23.609h-124.43l-19.691 17.508-13.113-17.508z"></path>
  <path d="m484.08 444.14h-168.17c-11.277 0-20.453-8.9453-20.453-19.945 0-5.4141 2.1641-10.461 6.0977-14.203 3.8477-3.7227 8.9531-5.7852 14.355-5.7852h124.97l11.133 12.34 12.234-12.34h19.832c11.281 0 20.457 8.9648 20.457 19.988 0 5.3047-2.2227 10.469-6.1016 14.156-3.832 3.7227-8.9453 5.7891-14.352 5.7891zm-168.17-29.859c-2.7695 0-5.3906 1.0586-7.3789 2.9805-1.9453 1.8516-2.9961 4.3047-2.9961 6.9336 0 5.4414 4.6562 9.8711 10.375 9.8711h168.17c2.7734 0 5.3984-1.0586 7.375-2.9766 1.9492-1.8594 3.0039-4.293 3.0039-6.8945 0-5.4648-4.6602-9.9141-10.383-9.9141h-15.633l-16.781 16.922-15.266-16.922z"></path>
  <path d="m484.08 486.96h-28.652l-33.293-11.48c-3.7422-1.2812-8.0938-1.0898-11.637 0.51953l-16.441 7.4141c-5.4922 2.4961-12.172 2.6992-17.902 0.53516l-21.844-8.1406c-3.957-1.4766-8.5117-1.3594-12.344 0.3125l-25.008 10.84h-1.043c-11.277 0-20.453-8.6133-20.453-19.207 0-5.2188 2.1875-10.102 6.1602-13.754 3.8633-3.5469 8.9336-5.5 14.293-5.5h168.17c11.281 0 20.457 8.6367 20.457 19.254 0 5.1719-2.2578 10.184-6.1992 13.738-3.9102 3.5273-8.9727 5.4688-14.266 5.4688zm-26.961-10.078h26.961c2.793 0 5.457-1.0195 7.5078-2.8672 1.8477-1.6758 2.8711-3.8945 2.8711-6.2617 0-5.0586-4.6602-9.1758-10.383-9.1758h-168.17c-2.8242 0-5.4805 1.0078-7.4727 2.8398-1.3242 1.2188-2.9023 3.3086-2.9023 6.3359 0 4.668 4.2266 8.6484 9.4219 9.0898l22.984-9.9648c6.2227-2.7227 13.496-2.9062 19.891-0.50781l21.855 8.1445c3.3125 1.2461 7.1094 1.125 10.211-0.28125l16.441-7.4141c5.8398-2.6484 12.914-2.9805 19.07-0.86719z"></path>
  <path d="m400 337.66c-2.7852 0-5.0391-2.2539-5.0391-5.0391v-42.77c0-2.7812 2.2539-5.0391 5.0391-5.0391s5.0391 2.2539 5.0391 5.0391v42.77c-0.003906 2.7852-2.2539 5.0391-5.0391 5.0391z"></path>
  <path d="m398.11 294.89c-11.113 0-20.152-9.0391-20.152-20.152s9.0391-20.152 20.152-20.152 20.152 9.0391 20.152 20.152-9.0391 20.152-20.152 20.152zm0-30.227c-5.5547 0-10.078 4.5195-10.078 10.078 0 5.5586 4.5234 10.078 10.078 10.078 5.5547 0 10.078-4.5195 10.078-10.078 0-5.5586-4.5234-10.078-10.078-10.078z"></path>
 </g>

      </g>
      </svg>