<svg id="svg" fill="#000000" stroke="#000000" width="200px" height="200px" version="1.1" viewBox="144 144 512 512" xmlns="http://www.w3.org/2000/svg">
    <g id="IconSvg_bgCarrier" stroke-width="0"></g>
    <g id="IconSvg_tracerCarrier" stroke-linecap="round" stroke-linejoin="round" stroke="#CCCCCC"></g>
     <g id="IconSvg_iconCarrier">
      <path xmlns="http://www.w3.org/2000/svg" d="m513.23 179.17-32.098-21.68c-3.5977-2.668-7.9648-4.1055-12.445-4.0938h-109.1c-7.4219 0.11719-14.227 4.1445-17.906 10.59-3.6758 6.4453-3.6758 14.355 0 20.805 3.6797 6.4453 10.484 10.473 17.906 10.59h19.68v20.152h-1.4648c-4.543 0.003906-8.8984 1.8125-12.109 5.0234-3.2109 3.2148-5.0195 7.5703-5.0234 12.113v20.402-0.003907c-4.2109 0.46484-8.1016 2.4648-10.926 5.6172-2.8281 3.1523-4.3945 7.2383-4.4023 11.473v20.238l-15.125-0.003907c-4.5547 0.003907-8.9219 1.8164-12.145 5.0352-3.2266 3.2188-5.043 7.582-5.0547 12.137v20.309c-9.5859 0.53125-18.602 4.7148-25.203 11.684-6.6016 6.9727-10.289 16.203-10.301 25.805v243.69c0.011719 9.9531 3.9727 19.5 11.012 26.539 7.043 7.0391 16.59 10.996 26.547 11.008h143.79c9.957-0.011718 19.5-3.9727 26.539-11.012 7.0391-7.0391 11-16.582 11.008-26.535v-243.7c-0.011718-9.5938-3.6953-18.82-10.293-25.789-6.5977-6.9688-15.609-11.148-25.191-11.688v-20.309c-0.003906-4.5547-1.8164-8.9258-5.0391-12.148-3.2227-3.2227-7.5898-5.0352-12.148-5.043h-15.102v-20.238c-0.007813-4.2344-1.5742-8.3164-4.3984-11.469-2.8281-3.1523-6.7188-5.1523-10.93-5.6172v-20.402c-0.003906-4.543-1.8125-8.8984-5.0234-12.109-3.2109-3.2109-7.5664-5.0195-12.109-5.0234h-1.4805v-20.152h67.602l27.473 18.562-0.003906-0.003906c3.4414 2.3398 7.5078 3.5938 11.668 3.5977 1.3633-0.003906 2.7227-0.13281 4.0625-0.39453 5.4531-1.0625 10.262-4.25 13.371-8.8555 3.1055-4.6094 4.2578-10.258 3.2031-15.715-1.0586-5.457-4.2344-10.27-8.8359-13.383zm-32.211 379.34h-188.08v-142.6h188.08zm-22.16 72.68h-143.79c-5.8711-0.003906-11.496-2.3398-15.645-6.4883-4.1523-4.1523-6.4844-9.7773-6.4922-15.645v-35.109h188.08v35.109c-0.007813 5.8711-2.3477 11.5-6.5 15.648-4.1562 4.1523-9.7852 6.4844-15.66 6.4844zm22.137-265.84v35.133l-188.06 0.003906v-35.137c0.007813-5.8672 2.3438-11.492 6.4922-15.641 4.1484-4.1484 9.7773-6.4844 15.645-6.4883h143.79c5.8711 0 11.504 2.332 15.656 6.4805 4.1562 4.1484 6.4922 9.7773 6.5039 15.648zm-35.504-57.805v20.238h-117.05v-20.219c0.011719-0.97656 0.80078-1.7617 1.7773-1.7734h113.49c0.98438-0.003907 1.7891 0.78906 1.8008 1.7734zm-84.742-17.172v-20.238c0.015625-0.97656 0.80469-1.7656 1.7812-1.7812h48.883c0.97656 0.015625 1.7656 0.80469 1.7812 1.7812v20.238zm37.121-57.727v20.297h-21.785v-20.297c0.011718-0.94531 0.77734-1.707 1.7188-1.7188h18.344c0.94922 0.007812 1.7148 0.77344 1.7266 1.7188zm108.24-32.98h0.003907c-1.7148 2.543-5.1641 3.2148-7.7109 1.5078l-31.391-21.215h-107.42c-2.9414-0.17969-5.2344-2.6211-5.2344-5.5664 0-2.9492 2.293-5.3867 5.2344-5.5703h109.1c1.207-0.003907 2.3789 0.38672 3.3398 1.1133l32.574 22.02c2.5352 1.7188 3.207 5.1641 1.5078 7.7109zm-161.11 310.85h18.668v18.668h-0.003907c0.007813 7.1055 5.7695 12.867 12.879 12.875h20.879c7.1055-0.007812 12.863-5.7695 12.871-12.875v-18.668h18.672c7.1094-0.011719 12.867-5.7695 12.875-12.879v-20.879c-0.011719-7.1055-5.7695-12.859-12.875-12.871h-18.672v-18.672c-0.007813-7.1055-5.7656-12.863-12.871-12.871h-20.879c-7.1094 0.007813-12.867 5.7656-12.879 12.871v18.672h-18.668 0.003906c-7.1094 0.003906-12.875 5.7617-12.883 12.871v20.879c0.003906 7.1133 5.7695 12.875 12.883 12.879zm2.5391-31.215h23.82c2.0469 0 4.0117-0.80859 5.4609-2.2578 1.4492-1.4453 2.2617-3.4062 2.2617-5.4531v-23.836h15.797l0.003906 23.836c0 4.2539 3.4492 7.7031 7.7031 7.7031h23.84v15.797l-23.84 0.003906c-4.2578 0-7.7031 3.4531-7.7031 7.7109v23.832h-15.801v-23.828c0-2.0469-0.8125-4.0078-2.2617-5.457-1.4492-1.4453-3.4141-2.2578-5.4609-2.2539h-23.82z"></path>

      </g>
      </svg>