<svg id="svg" fill="#000000" stroke="#000000" width="200px" height="200px" version="1.1" viewBox="144 144 512 512" xmlns="http://www.w3.org/2000/svg">
    <g id="IconSvg_bgCarrier" stroke-width="0"></g>
    <g id="IconSvg_tracerCarrier" stroke-linecap="round" stroke-linejoin="round" stroke="#CCCCCC"></g>
     <g id="IconSvg_iconCarrier">
      <g xmlns="http://www.w3.org/2000/svg">
  <path d="m411.08 160.69c-125.95 0-228.23 102.27-228.23 228.23 0 44.336 12.594 85.648 34.258 120.41l58.945-56.93c-9.0703-19.145-14.105-40.809-14.105-63.48 0-82.625 67.008-149.13 149.13-149.13 82.625 0 149.13 67.008 149.13 149.13 0 82.121-66.504 149.13-149.13 149.13-22.672 0-44.336-5.0391-63.48-14.105l-56.93 58.945c34.762 21.664 76.074 34.258 120.41 34.258 125.95 0 228.23-102.27 228.23-228.23 0-125.95-102.27-228.23-228.23-228.23z"></path>
  <path d="m415.62 463.48 81.113-81.113c4.5352-4.5352 4.5352-11.586 0-15.617-4.5352-4.5352-11.586-4.5352-15.617 0l-67.008 67.008c-2.0156 2.0156-5.543 2.0156-7.5586 0l-8.5625-8.5664c-2.0156-2.0156-2.0156-5.543 0-7.5586l66.504-66.504c4.5352-4.5352 4.5352-11.586 0-15.617-4.5352-4.0312-11.586-4.5352-15.617 0l-66.508 66.508c-2.0156 2.0156-5.543 2.0156-7.5586 0l-8.5664-8.5664c-2.0156-2.0156-2.0156-5.543 0-7.5586l67.012-66.5c4.5352-4.5352 4.5352-11.586 0-15.617-4.5352-4.5352-11.586-4.5352-15.617 0l-81.113 80.605c-13.602 13.602-14.609 35.266-2.5195 50.383l-165.25 160.21c-10.578 10.078-10.578 26.703-0.50391 36.777 10.078 10.078 26.703 10.078 36.777-0.50391l160.21-165.25c15.117 12.094 36.781 11.59 50.383-2.5195z"></path>
 </g>

      </g>
      </svg>