<svg id="svg" fill="#000000" stroke="#000000" width="200px" height="200px" version="1.1" viewBox="144 144 512 512" xmlns="http://www.w3.org/2000/svg">
    <g id="IconSvg_bgCarrier" stroke-width="0"></g>
    <g id="IconSvg_tracerCarrier" stroke-linecap="round" stroke-linejoin="round" stroke="#CCCCCC"></g>
     <g id="IconSvg_iconCarrier">
      <path xmlns="http://www.w3.org/2000/svg" d="m568.27 314.35-81.617-0.50391 0.50391-81.617c0-21.664-17.129-38.793-38.793-39.297h-95.219c-21.664 0-38.793 17.129-39.297 38.793l-0.50391 81.617-81.617-0.50391c-21.664 0-38.793 17.129-39.297 38.793l0.50391 95.219c0 21.664 17.129 38.793 38.793 39.297l81.617 0.50391-0.50391 81.617c0 21.664 17.129 38.793 38.793 39.297l95.219 0.50391c21.664 0 38.793-17.129 39.297-38.793l0.50391-81.617 81.617 0.50391c21.664 0 38.793-17.129 39.297-38.793l0.50391-95.219c-1.0078-22.168-18.641-39.801-39.801-39.801z"></path>

      </g>
      </svg>