<svg id="svg" fill="#000000" stroke="#000000" width="200px" height="200px" version="1.1" viewBox="144 144 512 512" xmlns="http://www.w3.org/2000/svg">
    <g id="IconSvg_bgCarrier" stroke-width="0"></g>
    <g id="IconSvg_tracerCarrier" stroke-linecap="round" stroke-linejoin="round" stroke="#CCCCCC"></g>
     <g id="IconSvg_iconCarrier">
      <defs xmlns="http://www.w3.org/2000/svg">
  <clipPath id="b">
   <path d="m148.09 148.09h503.81v503.81h-503.81z"></path>
  </clipPath>
  <clipPath id="a">
   <path d="m148.09 283h367.91v368.9h-367.91z"></path>
  </clipPath>
 </defs>
<g xmlns="http://www.w3.org/2000/svg" clip-path="url(#b)">
  <path d="m641.41 148.09h-482.82c-4.2383 0.019531-8.0469 2.5898-9.6562 6.5078-1.6445 3.9102-0.77344 8.4219 2.2031 11.441l482.82 482.82c1.9844 1.9648 4.6641 3.0586 7.4531 3.043 1.3789 0.035156 2.7422-0.25 3.9883-0.83984 3.9219-1.6094 6.4883-5.418 6.5078-9.6562v-482.82c0-2.7852-1.1055-5.4531-3.0742-7.4219s-4.6367-3.0742-7.4219-3.0742zm-10.496 468.02-44.293-44.293 13.645-13.539v-0.003906c4.1172-4.1133 4.1172-10.789 0-14.902-4.1133-4.1172-10.789-4.1172-14.902 0l-13.539 14.062-21.621-21.621 35.371-33.168h-0.003906c3.7734-4.0273 3.7773-10.289 0.019532-14.324-3.7617-4.0391-10.008-4.4727-14.293-1l-36 33.691-22.148-22.148 13.645-13.539v0.003906c4.1172-4.1172 4.1172-10.789 0-14.906-4.1133-4.1133-10.789-4.1133-14.902 0l-13.539 13.539-21.621-21.621 35.371-33.168c2.2578-1.832 3.6562-4.5195 3.8594-7.418 0.20312-2.9023-0.80859-5.7578-2.793-7.8867-1.9805-2.1289-4.7578-3.3398-7.668-3.3438-2.9062 0-5.6875 1.2031-7.6758 3.3242l-36 33.691-22.148-22.148 13.645-13.539v0.003906c4.1172-4.1172 4.1172-10.789 0-14.906-4.1133-4.1133-10.785-4.1133-14.902 0l-13.539 13.543-21.621-21.621 35.371-33.168c2.2578-1.832 3.6562-4.5195 3.8594-7.4219s-0.80859-5.7578-2.793-7.8867c-1.9805-2.1289-4.7578-3.3398-7.668-3.3398-2.9062-0.003906-5.6875 1.1992-7.6758 3.3242l-36 33.691-22.148-22.148 13.645-13.539h0.003906c4.1133-4.1172 4.1133-10.789 0-14.902-4.1172-4.1172-10.789-4.1172-14.906 0l-13.539 13.539-21.621-21.621 35.371-33.168c3.7695-4.0312 3.7773-10.289 0.015625-14.328-3.7617-4.0352-10.004-4.4727-14.289-0.99609l-36 33.691-22.148-22.148 13.645-13.539c4.1133-4.1133 4.1133-10.789 0-14.902-4.1172-4.1172-10.789-4.1172-14.906 0l-13.539 13.539-21.621-22.148 35.371-33.168c2.2578-1.832 3.6562-4.5195 3.8594-7.418 0.20313-2.9023-0.80859-5.7578-2.7891-7.8867-1.9844-2.1289-4.7617-3.3398-7.668-3.3438-2.9102 0-5.6914 1.2031-7.6758 3.3242l-36.004 33.695-22.145-22.148 13.645-13.539c4.1133-4.1172 4.1133-10.789 0-14.906-4.1172-4.1133-10.789-4.1133-14.906 0l-13.539 14.066-20.57-20.992h447.02z"></path>
 </g>
<path xmlns="http://www.w3.org/2000/svg" d="m549.57 407.45c1.9727 2.3047 4.8398 3.6445 7.8711 3.6758 1.2656 0.019531 2.5156-0.23047 3.6758-0.73438 4.0781-1.5234 6.793-5.4102 6.8203-9.7617v-168.57c0-2.7852-1.1055-5.4531-3.0742-7.4219s-4.6367-3.0742-7.4219-3.0742h-146.94c-4.1211 0.003906-7.8555 2.418-9.5547 6.1758-1.6953 3.7539-1.0391 8.1523 1.6797 11.246zm-2.625-164.89v130.05l-113.78-130.05z"></path>
<g xmlns="http://www.w3.org/2000/svg" clip-path="url(#a)">
  <path d="m500.03 566.57v-1.1562c0.058594-0.34375 0.058594-0.69922 0-1.0469-0.50391-1.1445-1.1758-2.207-1.9961-3.1484l-255.47-255.05c-26.449-26.555-58.043-29.598-79.875-7.6602-21.832 21.938-19.312 52.48 7.6602 79.98l254.42 255.05 0.003906-0.003906c0.85547 0.90625 1.8906 1.6211 3.043 2.0977h2.207l72.734 16.27h2.2031c2.793 0.015625 5.4727-1.0781 7.4531-3.043 2.5703-2.4609 3.7148-6.0586 3.043-9.5508zm-282.55-170.77 13.855-13.855 214.96 215.48-13.961 13.855zm-22.777-22.883 42.508-42.613 7.9766 7.9766-41.984 41.984zm266.39 209.92-214.96-215.8 13.855-13.855 214.96 215.48zm-283.39-269.22c4.7969-5.4258 11.652-8.5859 18.895-8.7109 9.3359 0.81641 18.129 4.7305 24.98 11.125l-41.984 41.984c-8.9219-11.758-17.422-29.074-1.7852-44.715zm275.84 306.8 30.438-30.543 7.9766 37.996z"></path>
 </g>

      </g>
      </svg>