<svg id="svg" fill="#000000" stroke="#000000" width="200px" height="200px" version="1.1" viewBox="144 144 512 512" xmlns="http://www.w3.org/2000/svg">
    <g id="IconSvg_bgCarrier" stroke-width="0"></g>
    <g id="IconSvg_tracerCarrier" stroke-linecap="round" stroke-linejoin="round" stroke="#CCCCCC"></g>
     <g id="IconSvg_iconCarrier">
      <path xmlns="http://www.w3.org/2000/svg" d="m626.71 591.2-136.03-136.03v-0.003907c26.715-35.695 38.918-80.188 34.148-124.52s-26.156-85.211-59.855-114.41c-33.699-29.195-77.207-44.543-121.77-42.949-44.559 1.5938-86.859 20.008-118.39 51.535-31.527 31.527-49.941 73.828-51.535 118.39-1.5938 44.559 13.754 88.066 42.949 121.77 29.195 33.699 70.074 55.086 114.41 59.855s88.824-7.4336 124.52-34.148l136.03 136.03zm-277.09-115.62c-33.402 0-65.441-13.27-89.062-36.891-23.621-23.621-36.891-55.656-36.891-89.062 0-33.402 13.27-65.441 36.891-89.062 23.621-23.621 55.66-36.891 89.062-36.891 33.406 0 65.441 13.27 89.062 36.891 23.621 23.621 36.891 55.66 36.891 89.062 0 33.406-13.27 65.441-36.891 89.062-23.621 23.621-55.656 36.891-89.062 36.891z"></path>

      </g>
      </svg>