<svg id="svg" fill="#000000" stroke="#000000" width="200" height="200" version="1.1" viewBox="143 143 514 514" xmlns="http://www.w3.org/2000/svg">
    <g id="IconSvg_bgCarrier" stroke-width="0"></g>
    <g id="IconSvg_tracerCarrier" stroke-linecap="round" stroke-linejoin="round" stroke="#CCCCCC" stroke-width="0">
      <defs xmlns="http://www.w3.org/2000/svg">
  <clipPath id="b">
   <path d="m242 410h316v241.9h-316z"></path>
  </clipPath>
  <clipPath id="a">
   <path d="m295 148.09h210v136.91h-210z"></path>
  </clipPath>
 </defs>
<path xmlns="http://www.w3.org/2000/svg" d="m400 431.49c-22.262-0.027343-43.605-8.8828-59.348-24.621-15.742-15.742-24.598-37.086-24.621-59.348v-73.473c0-5.7969 4.6992-10.496 10.496-10.496 8.4805 0.45312 16.754-2.7188 22.762-8.7266 6.0078-6.0039 9.1797-14.281 8.7266-22.762 0-5.7969 4.6992-10.496 10.496-10.496s10.496 4.6992 10.496 10.496c0 0 3.8203 31.488 94.465 31.488 2.7812 0 5.4531 1.1055 7.418 3.0742 1.9688 1.9688 3.0742 4.6367 3.0742 7.4219v73.473c-0.023438 22.262-8.8789 43.605-24.621 59.348-15.738 15.738-37.082 24.594-59.344 24.621zm-62.977-148v64.027c0 22.5 12.004 43.289 31.488 54.539s43.488 11.25 62.977 0c19.484-11.25 31.488-32.039 31.488-54.539v-63.125c-50.652-1.4062-76.883-13.059-90.453-25.055h-0.003907c-7.7031 12.879-20.688 21.715-35.496 24.152z"></path>
<g xmlns="http://www.w3.org/2000/svg" clip-path="url(#b)">
  <path d="m546.94 651.9h-293.89c-5.7969 0-10.496-4.6992-10.496-10.496v-125.77c0.039062-11.395 3.7656-22.469 10.629-31.566 6.8594-9.0977 16.484-15.73 27.43-18.898l64.93-12.5c0.64844-0.125 1.3086-0.1875 1.9727-0.1875 2.7812 0 5.4531-1.1094 7.4219-3.0742 1.9688-1.9688 3.0742-4.6406 3.0742-7.4219v-31.488h20.992v31.488c0.003907 8.1719-3.168 16.023-8.8516 21.902-5.6797 5.875-13.422 9.3125-21.59 9.5859l-63.133 12.121c-6.3633 2.0391-11.91 6.0469-15.848 11.445-3.9336 5.4023-6.0469 11.914-6.0352 18.594v115.28h272.89v-115.28c-0.023437-6.8359-2.2617-13.48-6.3789-18.941-4.1172-5.457-9.8906-9.4375-16.457-11.34l-62.18-11.879c-8.168-0.27344-15.91-3.7109-21.59-9.5859-5.6797-5.8789-8.8555-13.73-8.8477-21.902v-31.488h20.992v31.488c0 2.7812 1.1055 5.4531 3.0742 7.4219 1.9648 1.9648 4.6367 3.0742 7.4219 3.0742 0.66016 0 1.3203 0.0625 1.9727 0.1875l64.027 12.289h-0.003907c11.133 3.043 20.965 9.6406 28 18.789 7.0312 9.1484 10.883 20.348 10.961 31.887v125.77c0 2.7852-1.1055 5.4531-3.0742 7.4219s-4.6367 3.0742-7.4219 3.0742z"></path>
 </g>
<path xmlns="http://www.w3.org/2000/svg" d="m473.47 347.52v-20.992c7.4961 0 14.43-4.0039 18.18-10.496 3.7461-6.4961 3.7461-14.5 0-20.992-3.75-6.4961-10.684-10.496-18.18-10.496v-20.992c14.996 0 28.859 8 36.355 20.992 7.5 12.988 7.5 28.992 0 41.984-7.4961 12.988-21.359 20.992-36.355 20.992z"></path>
<path xmlns="http://www.w3.org/2000/svg" d="m326.53 347.52c-15 0-28.859-8.0039-36.359-20.992-7.5-12.992-7.5-28.996 0-41.984 7.5-12.992 21.359-20.992 36.359-20.992v20.992c-7.5 0-14.43 4-18.18 10.496-3.75 6.4922-3.75 14.496 0 20.992 3.75 6.4922 10.68 10.496 18.18 10.496z"></path>
<path xmlns="http://www.w3.org/2000/svg" d="m295.04 567.93h20.992v73.473h-20.992z"></path>
<path xmlns="http://www.w3.org/2000/svg" d="m483.96 567.93h20.992v73.473h-20.992z"></path>
<path xmlns="http://www.w3.org/2000/svg" d="m400.31 234.6 20.367-5.0898 10.496 41.984-20.367 5.0898z"></path>
<path xmlns="http://www.w3.org/2000/svg" d="m432.02 245.88 19.914-6.6367 10.496 31.484-19.914 6.6367z"></path>
<g xmlns="http://www.w3.org/2000/svg" clip-path="url(#a)">
  <path d="m504.96 284.54h-20.992v-31.488c0-30-16.004-57.719-41.98-72.719-25.98-15-57.988-15-83.969 0s-41.984 42.719-41.984 72.719v31.488h-20.992v-31.488c0-37.5 20.004-72.148 52.48-90.898 32.473-18.75 72.484-18.75 104.96 0 32.473 18.75 52.477 53.398 52.477 90.898z"></path>
 </g>
<path xmlns="http://www.w3.org/2000/svg" d="m400 504.96c-2.7852 0-5.4531-1.1055-7.4219-3.0742l-41.984-41.984 14.84-14.84 34.566 34.562 34.562-34.562 14.84 14.84-41.984 41.984c-1.9648 1.9688-4.6367 3.0742-7.418 3.0742z"></path>
<path xmlns="http://www.w3.org/2000/svg" d="m441.98 525.95c-0.66797 0-1.332-0.0625-1.9844-0.1875-4.9414-0.94922-8.5117-5.2734-8.5117-10.309 0-6.2969-18.957-10.496-31.488-10.496v-20.992c13.773-0.47266 27.426 2.7656 39.516 9.3867l13.707-34.281 19.5 7.8086-20.992 52.48h0.003906c-1.5977 3.9844-5.4609 6.5938-9.75 6.5898z"></path>
<path xmlns="http://www.w3.org/2000/svg" d="m410.5 641.41h-20.992v-135.66c-10.613 1.4805-20.992 4.9648-20.992 9.707 0.007812 5.0391-3.5625 9.375-8.5117 10.328-4.9453 0.95312-9.8711-1.7422-11.738-6.4219l-20.992-52.48 19.5-7.8086 13.707 34.281h0.003907c12.094-6.6211 25.742-9.8594 39.52-9.3867 2.7812 0 5.4531 1.1094 7.4219 3.0742 1.9688 1.9688 3.0742 4.6406 3.0742 7.4219z"></path>

      </g>
     <g id="IconSvg_iconCarrier">
      <defs xmlns="http://www.w3.org/2000/svg">
  <clipPath id="b">
   <path d="m242 410h316v241.9h-316z"></path>
  </clipPath>
  <clipPath id="a">
   <path d="m295 148.09h210v136.91h-210z"></path>
  </clipPath>
 </defs>
<path xmlns="http://www.w3.org/2000/svg" d="m400 431.49c-22.262-0.027343-43.605-8.8828-59.348-24.621-15.742-15.742-24.598-37.086-24.621-59.348v-73.473c0-5.7969 4.6992-10.496 10.496-10.496 8.4805 0.45312 16.754-2.7188 22.762-8.7266 6.0078-6.0039 9.1797-14.281 8.7266-22.762 0-5.7969 4.6992-10.496 10.496-10.496s10.496 4.6992 10.496 10.496c0 0 3.8203 31.488 94.465 31.488 2.7812 0 5.4531 1.1055 7.418 3.0742 1.9688 1.9688 3.0742 4.6367 3.0742 7.4219v73.473c-0.023438 22.262-8.8789 43.605-24.621 59.348-15.738 15.738-37.082 24.594-59.344 24.621zm-62.977-148v64.027c0 22.5 12.004 43.289 31.488 54.539s43.488 11.25 62.977 0c19.484-11.25 31.488-32.039 31.488-54.539v-63.125c-50.652-1.4062-76.883-13.059-90.453-25.055h-0.003907c-7.7031 12.879-20.688 21.715-35.496 24.152z"></path>
<g xmlns="http://www.w3.org/2000/svg" clip-path="url(#b)">
  <path d="m546.94 651.9h-293.89c-5.7969 0-10.496-4.6992-10.496-10.496v-125.77c0.039062-11.395 3.7656-22.469 10.629-31.566 6.8594-9.0977 16.484-15.73 27.43-18.898l64.93-12.5c0.64844-0.125 1.3086-0.1875 1.9727-0.1875 2.7812 0 5.4531-1.1094 7.4219-3.0742 1.9688-1.9688 3.0742-4.6406 3.0742-7.4219v-31.488h20.992v31.488c0.003907 8.1719-3.168 16.023-8.8516 21.902-5.6797 5.875-13.422 9.3125-21.59 9.5859l-63.133 12.121c-6.3633 2.0391-11.91 6.0469-15.848 11.445-3.9336 5.4023-6.0469 11.914-6.0352 18.594v115.28h272.89v-115.28c-0.023437-6.8359-2.2617-13.48-6.3789-18.941-4.1172-5.457-9.8906-9.4375-16.457-11.34l-62.18-11.879c-8.168-0.27344-15.91-3.7109-21.59-9.5859-5.6797-5.8789-8.8555-13.73-8.8477-21.902v-31.488h20.992v31.488c0 2.7812 1.1055 5.4531 3.0742 7.4219 1.9648 1.9648 4.6367 3.0742 7.4219 3.0742 0.66016 0 1.3203 0.0625 1.9727 0.1875l64.027 12.289h-0.003907c11.133 3.043 20.965 9.6406 28 18.789 7.0312 9.1484 10.883 20.348 10.961 31.887v125.77c0 2.7852-1.1055 5.4531-3.0742 7.4219s-4.6367 3.0742-7.4219 3.0742z"></path>
 </g>
<path xmlns="http://www.w3.org/2000/svg" d="m473.47 347.52v-20.992c7.4961 0 14.43-4.0039 18.18-10.496 3.7461-6.4961 3.7461-14.5 0-20.992-3.75-6.4961-10.684-10.496-18.18-10.496v-20.992c14.996 0 28.859 8 36.355 20.992 7.5 12.988 7.5 28.992 0 41.984-7.4961 12.988-21.359 20.992-36.355 20.992z"></path>
<path xmlns="http://www.w3.org/2000/svg" d="m326.53 347.52c-15 0-28.859-8.0039-36.359-20.992-7.5-12.992-7.5-28.996 0-41.984 7.5-12.992 21.359-20.992 36.359-20.992v20.992c-7.5 0-14.43 4-18.18 10.496-3.75 6.4922-3.75 14.496 0 20.992 3.75 6.4922 10.68 10.496 18.18 10.496z"></path>
<path xmlns="http://www.w3.org/2000/svg" d="m295.04 567.93h20.992v73.473h-20.992z"></path>
<path xmlns="http://www.w3.org/2000/svg" d="m483.96 567.93h20.992v73.473h-20.992z"></path>
<path xmlns="http://www.w3.org/2000/svg" d="m400.31 234.6 20.367-5.0898 10.496 41.984-20.367 5.0898z"></path>
<path xmlns="http://www.w3.org/2000/svg" d="m432.02 245.88 19.914-6.6367 10.496 31.484-19.914 6.6367z"></path>
<g xmlns="http://www.w3.org/2000/svg" clip-path="url(#a)">
  <path d="m504.96 284.54h-20.992v-31.488c0-30-16.004-57.719-41.98-72.719-25.98-15-57.988-15-83.969 0s-41.984 42.719-41.984 72.719v31.488h-20.992v-31.488c0-37.5 20.004-72.148 52.48-90.898 32.473-18.75 72.484-18.75 104.96 0 32.473 18.75 52.477 53.398 52.477 90.898z"></path>
 </g>
<path xmlns="http://www.w3.org/2000/svg" d="m400 504.96c-2.7852 0-5.4531-1.1055-7.4219-3.0742l-41.984-41.984 14.84-14.84 34.566 34.562 34.562-34.562 14.84 14.84-41.984 41.984c-1.9648 1.9688-4.6367 3.0742-7.418 3.0742z"></path>
<path xmlns="http://www.w3.org/2000/svg" d="m441.98 525.95c-0.66797 0-1.332-0.0625-1.9844-0.1875-4.9414-0.94922-8.5117-5.2734-8.5117-10.309 0-6.2969-18.957-10.496-31.488-10.496v-20.992c13.773-0.47266 27.426 2.7656 39.516 9.3867l13.707-34.281 19.5 7.8086-20.992 52.48h0.003906c-1.5977 3.9844-5.4609 6.5938-9.75 6.5898z"></path>
<path xmlns="http://www.w3.org/2000/svg" d="m410.5 641.41h-20.992v-135.66c-10.613 1.4805-20.992 4.9648-20.992 9.707 0.007812 5.0391-3.5625 9.375-8.5117 10.328-4.9453 0.95312-9.8711-1.7422-11.738-6.4219l-20.992-52.48 19.5-7.8086 13.707 34.281h0.003907c12.094-6.6211 25.742-9.8594 39.52-9.3867 2.7812 0 5.4531 1.1094 7.4219 3.0742 1.9688 1.9688 3.0742 4.6406 3.0742 7.4219z"></path>

      </g>
      </svg>